# xmcd
#
# Track frame offsets:
#	150
#	18715
#	42644
#	64739
#	84066
#	105250
#	130117
#	149051
#	168987
#	187477
#	203659
#	217362
#
# Disc length: 3057 seconds
# Revision: 0
# Processed by: cddbd v1.5.2PL0 Copyright (c) Steve Scherf et al.
# Submitted via: dBpowerAMP V12.0
#
DISCID=b70bef0c
DTITLE=Rick Estrin and the Nightcats - Contemporary
DYEAR=1900
DGENRE=
TTITLE0=I'm Running
TTITLE1=Resentment File
TTITLE2=Contemporary
TTITLE3=She Nuts Up
TTITLE4=New Shape
TTITLE5=House of Grease
TTITLE6=Root of All Evil
TTITLE7=The Main Event
TTITLE8=Cupcakin'
TTITLE9=New Year's Eve
TTITLE10=Nothing But Love
TTITLE11=Bo Dee's Bounce
EXTD=
EXTT0=
EXTT1=
EXTT2=
EXTT3=
EXTT4=
EXTT5=
EXTT6=
EXTT7=
EXTT8=
EXTT9=
EXTT10=
EXTT11=
PLAYORDER=
